# xmcd
#
# Track frame offsets:
#	150
#	20605
#	42217
#	59517
#	77955
#	97632
#	114405
#	129647
#	164445
#	192282
#	205832
#	221947
#	247300
#
# Disc length: 3523
#
# Revision: 1
# Processed by: cddbd v1.5.1PL0 Copyright (c) Steve Scherf et al.
# Submitted via: CDex 1.50beta9
# Normalized: r0:DSETVAR1,TDELIM( - )
#
DISCID=bd0dc10d
DTITLE=Various Artist - Romantic 2
DYEAR=2002
DGENRE=New Age
TTITLE0=Yanni - Reflections of passion
TTITLE1=David Lanz - Leaves on the Seine
TTITLE2=Bran Crain - Northern lights
TTITLE3=Paul Mauriat - Liebestraum
TTITLE4=Ennio Morricone - Finale Di Un "Concerto Romantico Interrotto"
TTITLE5=Blackmore's Night - Beyond the sunset
TTITLE6=Manolo Carrasco - Gloria
TTITLE7=Kenny Drew Jr. - Try to remember
TTITLE8=The west coast - Cry me a river
TTITLE9=Krstina and Laura - La Mer(Beyond the sea)
TTITLE10=Camille - Londonderry air
TTITLE11=James Last - My way
TTITLE12=Jim Brickman with David Benoit - Glory
EXTD=YEAR: 2002
EXTT0=
EXTT1=
EXTT2=
EXTT3=
EXTT4=
EXTT5=
EXTT6=
EXTT7=
EXTT8=
EXTT9=
EXTT10=
EXTT11=
EXTT12=
PLAYORDER=
